<svg width="125" height="24" viewBox="0 0 125 24" fill="none" xmlns="http://www.w3.org/2000/svg">
<path d="M3.832 23L0.696 7.352H3.256L5.848 21.304H6.296L9.72 7.352H13.912L17.336 21.304H17.784L20.376 7.352H22.936L19.8 23H15.48L12.024 9.048H11.608L8.152 23H3.832ZM34.1365 23.448C32.5578 23.448 31.1712 23.1173 29.9765 22.456C28.7818 21.7733 27.8538 20.824 27.1925 19.608C26.5312 18.392 26.2005 16.984 26.2005 15.384V15C26.2005 13.3787 26.5312 11.96 27.1925 10.744C27.8538 9.528 28.7712 8.58933 29.9445 7.928C31.1178 7.24533 32.4618 6.904 33.9765 6.904C35.4485 6.904 36.7498 7.224 37.8805 7.864C39.0112 8.48267 39.8965 9.37867 40.5365 10.552C41.1765 11.7253 41.4965 13.1013 41.4965 14.68V15.832H28.7285C28.7925 17.5173 29.3365 18.84 30.3605 19.8C31.3845 20.7387 32.6645 21.208 34.2005 21.208C35.5445 21.208 36.5792 20.8987 37.3045 20.28C38.0298 19.6613 38.5845 18.9253 38.9685 18.072L41.1445 19.128C40.8245 19.7893 40.3765 20.4507 39.8005 21.112C39.2458 21.7733 38.5098 22.328 37.5925 22.776C36.6965 23.224 35.5445 23.448 34.1365 23.448ZM28.7605 13.752H38.9365C38.8512 12.3013 38.3498 11.1707 37.4325 10.36C36.5365 9.54933 35.3845 9.144 33.9765 9.144C32.5472 9.144 31.3738 9.54933 30.4565 10.36C29.5392 11.1707 28.9738 12.3013 28.7605 13.752ZM54.578 23.448C52.9567 23.448 51.6873 23.1387 50.77 22.52C49.874 21.9013 49.2233 21.1973 48.818 20.408H48.37V23H45.906V0.599998H48.434V9.816H48.882C49.138 9.32533 49.5007 8.86667 49.97 8.44C50.4393 7.992 51.0473 7.62933 51.794 7.352C52.562 7.05333 53.49 6.904 54.578 6.904C55.9433 6.904 57.1807 7.23467 58.29 7.896C59.4207 8.536 60.3167 9.464 60.978 10.68C61.6393 11.8747 61.97 13.304 61.97 14.968V15.384C61.97 17.048 61.6287 18.488 60.946 19.704C60.2847 20.92 59.3887 21.848 58.258 22.488C57.1487 23.128 55.922 23.448 54.578 23.448ZM53.906 21.208C55.5273 21.208 56.8393 20.696 57.842 19.672C58.866 18.6267 59.378 17.176 59.378 15.32V15.032C59.378 13.176 58.866 11.736 57.842 10.712C56.8393 9.66667 55.5273 9.144 53.906 9.144C52.306 9.144 50.9833 9.66667 49.938 10.712C48.914 11.736 48.402 13.176 48.402 15.032V15.32C48.402 17.176 48.914 18.6267 49.938 19.672C50.9833 20.696 52.306 21.208 53.906 21.208ZM74.6598 23.448C71.8438 23.448 69.6038 22.68 67.9398 21.144C66.2758 19.5867 65.4438 17.368 65.4438 14.488V9.112C65.4438 6.232 66.2758 4.024 67.9398 2.488C69.6038 0.930665 71.8438 0.151999 74.6598 0.151999C77.4758 0.151999 79.7158 0.930665 81.3798 2.488C83.0438 4.024 83.8758 6.232 83.8758 9.112V14.488C83.8758 17.368 83.0438 19.5867 81.3798 21.144C79.7158 22.68 77.4758 23.448 74.6598 23.448ZM74.6598 19.672C76.2384 19.672 77.4651 19.2133 78.3398 18.296C79.2144 17.3787 79.6518 16.152 79.6518 14.616V8.984C79.6518 7.448 79.2144 6.22133 78.3398 5.304C77.4651 4.38667 76.2384 3.928 74.6598 3.928C73.1024 3.928 71.8758 4.38667 70.9798 5.304C70.1051 6.22133 69.6678 7.448 69.6678 8.984V14.616C69.6678 16.152 70.1051 17.3787 70.9798 18.296C71.8758 19.2133 73.1024 19.672 74.6598 19.672ZM96.0928 23.448C93.3194 23.448 91.1221 22.68 89.5008 21.144C87.8794 19.5867 87.0688 17.368 87.0688 14.488V9.112C87.0688 6.232 87.8794 4.024 89.5008 2.488C91.1221 0.930665 93.3194 0.151999 96.0928 0.151999C98.8448 0.151999 100.967 0.909332 102.461 2.424C103.975 3.91733 104.733 5.976 104.733 8.6V8.792H100.573V8.472C100.573 7.14933 100.199 6.06133 99.4528 5.208C98.7274 4.35467 97.6074 3.928 96.0928 3.928C94.5994 3.928 93.4261 4.38667 92.5728 5.304C91.7194 6.22133 91.2928 7.46933 91.2928 9.048V14.552C91.2928 16.1093 91.7194 17.3573 92.5728 18.296C93.4261 19.2133 94.5994 19.672 96.0928 19.672C97.6074 19.672 98.7274 19.2453 99.4528 18.392C100.199 17.5173 100.573 16.4293 100.573 15.128V14.552H104.733V15C104.733 17.624 103.975 19.6933 102.461 21.208C100.967 22.7013 98.8448 23.448 96.0928 23.448ZM108.174 23V0.599998H117.903C119.311 0.599998 120.537 0.845332 121.583 1.336C122.628 1.82667 123.439 2.52 124.015 3.416C124.591 4.312 124.878 5.368 124.878 6.584V6.968C124.878 8.312 124.559 9.4 123.919 10.232C123.279 11.064 122.489 11.672 121.551 12.056V12.632C122.404 12.6747 123.065 12.9733 123.535 13.528C124.004 14.0613 124.239 14.776 124.239 15.672V23H120.015V16.28C120.015 15.768 119.876 15.352 119.599 15.032C119.343 14.712 118.905 14.552 118.287 14.552H112.399V23H108.174ZM112.399 10.712H117.455C118.457 10.712 119.236 10.4453 119.791 9.912C120.367 9.35733 120.655 8.632 120.655 7.736V7.416C120.655 6.52 120.377 5.80533 119.823 5.272C119.268 4.71733 118.479 4.44 117.455 4.44H112.399V10.712Z" fill="#E9F7EE"/>
</svg>
